<?xml version="1.0" encoding="UTF-8"?>
<!-- Generated by Pixelmator Pro 3.7 -->
<svg width="740" height="1024" viewBox="0 0 740 1024" xmlns="http://www.w3.org/2000/svg">
    <g id="Group">
        <path id="Path" fill="#ffa000" stroke="none" d="M 486.869385 370.153503 L 384.63678 465.264526 L 289.770477 273.953796 L 338.858124 163.935608 C 351.283356 141.880249 371.556 141.838074 383.981201 163.935608 L 486.869385 370.153503 Z"/>
        <path id="path1" fill="#f57f17" stroke="none" d="M 384.63678 465.261658 L 2.599858 820.598145 L 289.770477 273.950867 Z"/>
        <path id="path2" fill="#ffca28" stroke="none" d="M 598.685303 224.776428 C 616.948975 207.224915 635.831604 213.211365 640.643005 238.080017 L 740.084412 815.838257 L 410.441101 1013.36615 C 398.90506 1019.735229 368.356812 1022.497742 368.356812 1022.497742 C 368.356812 1022.497742 340.473145 1019.164124 329.845856 1013.2677 L 2.588588 820.578491 L 598.685303 224.776428 Z"/>
        <path id="path3" fill="#ffa000" stroke="none" d="M 289.770477 273.950867 L 2.599858 820.598145 L 130.510117 21.658752 C 135.22023 -3.229614 149.389938 -5.626343 162.031876 16.341797 L 289.770477 273.950867 Z"/>
    </g>
</svg>
